<?xml version="1.0" encoding="utf-8"?>
<!-- Generator: Adobe Illustrator 27.0.0, SVG Export Plug-In . SVG Version: 6.00 Build 0)  -->
<svg version="1.1" id="Layer_2_00000053526226961037669380000016579927053864417960_"
	 xmlns="http://www.w3.org/2000/svg" xmlns:xlink="http://www.w3.org/1999/xlink" x="0px" y="0px" viewBox="0 0 1000 1000"
	 style="enable-background:new 0 0 1000 1000;" xml:space="preserve">
<style type="text/css">
	.st0{fill:#FFFFFF;}
</style>
<g>
	<path class="st0" d="M652.6,301.3c-14.4,2.8-29,5.3-48.5,0c3.5,13.6,2.3,29-1.6,45.4l29.7-9.4l7.8,7.8
		c-7.4,21.7-28.2,42.3-29.7,50.1c-6,9-15.6,8.5-26.6,4.7L568.1,450c15.8-4,28.8-10,37.6-18.8c0,0,25-1.6,29.7-7.8
		c0-9.4,18.6-60.1,31.3-79.8C671.4,319.4,666.8,305.1,652.6,301.3z"/>
	<path class="st0" d="M719.9,290.3c5.7-2.6-11.5-33.7-20.3-28.2c-6.2,3.9-45.4-39.1-48.5-40.7c-10.5-4.1-21.5-3.8-32.9,0
		c-5.4,12.5-12.9,21.9-26.1,23.4l-0.5-4.6c-3.1-12.5-43-54-67.3-65.7c-6.3-1.6-9.4-34.4,6.3-42.3c-29.7,28.2,34.4,36,34.4,36
		s7.8-9.4,21.9-7.8c6.2,0.7,14.1,11,14.1,11c20.3-7.8,29.2-21,28.2-45.4c-26.6-12.5-37.6-29.7-53.2-39.1c0,0-13.7-5.3-30.2-10.3
		c4.6-6.8,6.2-16,5.1-27.2c-2.8,8.9-12.8,15.8-30,20.6c-3.8-0.8-7.5-1.5-11-1.9c-17.6-11.3-44.6-27.4-64.2-15
		c-20.1,13.5-34.2,13.5-54,17.2c20.6,4.3,48.4,7.3,56.8,2.4c13.9-7.9,23.2-5.3,25.2,9.9c-0.2,0.2-0.4,0.3-0.6,0.5
		c-18.5-7.1-41.8-6.6-60,10.1c-9,6.4-34.4,16-50.1,26.6c21,0.6,48.9-1.4,56.4-7.8c11.1-9.3,20.1-9.4,25.1,1.6
		c-4.8,6-8.6,11.4-10.8,15.1c-15.8-3-33.5,0-52.4,9.8c-9,6.4-18.7,22.3-34.4,32.9c21,0.6,33.3-4.6,40.7-11
		c11.4-9.5,22.7-9.3,28.2,2.4c-1.9,4-3.4,7.6-4.3,10.3c-0.6,1.8-0.5,6.4,0,12.7c-11.8,0.6-22,3.3-29.7,9.2
		c-5.8,11.4-18.7,22.3-34.4,32.9c19.5-3.9,38.5-7.7,40.7-11c9.1-5.9,17.6-6.4,25.8-2.6c0.2,3.2,0.4,6.4,0.6,9.5
		c-8.3,2.1-19.1,7.6-20.1,13.4c-0.8,5-20.1,26-23.5,26.6c4-0.1,35.7-12.7,32.9-17.2c5.2-5.2,9.4,0.5,10.6,2.5
		c-0.8,8.3-2.5,14.8-5.9,17.9c-1.9,1.9-4,2.7-6.3,3.1c-141.1,7.9-218.5,65.4-226.9,178.4c6.3,136.2,72,187.8,245.7,208.2
		c247.3,67.3,176.9,289.6,103.3,281.7c-39.1-4.7-31.3-100.2-14.1-133c-50.1,48.5-61.1,0.9-65.7-76.7c-15.6,73.6-50.3,47.8-81.4-14.1
		c-6.3,12.5,2.2,51.8,11,59.5c70.2,61.6,34.4,115.8-23.5,56.3c64.2,72,37.6,93.9,6.3,89.2c30.4,38.6,92.4,59,167.5,59.5
		C626,961.8,641.6,852.2,633.8,759.9c-67.3-208.2-319.3-205-320.9-292.7c6.3-23.5,53.2-36,134.6-3.1c76.7-3.1,155-84.5,150.3-151.8
		c-25,33.4-47.2,40.2-68.9,28.2c31.4,2.4,56.3-9.4,68.9-40.7c0,0,34.4-45.4,40.7-45.4s50.1,17.2,45.4,43.8
		c9.1,4.6,14.3,10.6,9.4,20.4l45.4,26.6C740.2,331,737.7,311.9,719.9,290.3z M535.7,84.8l20.5,9.4c0.6,0.3,0.5,1.1-0.1,1.2l-10,2
		c-1.8,0.4-3.7-0.4-4.7-2l-6.3-9.8C534.7,85.1,535.2,84.5,535.7,84.8z"/>
</g>
</svg>
