<?xml version="1.0" encoding="utf-8"?>
<!-- Generator: Adobe Illustrator 27.0.0, SVG Export Plug-In . SVG Version: 6.00 Build 0)  -->
<svg version="1.1" id="Layer_2_00000172419871296905352020000014863309351268734859_"
	 xmlns="http://www.w3.org/2000/svg" xmlns:xlink="http://www.w3.org/1999/xlink" x="0px" y="0px" viewBox="0 0 1000 1000"
	 style="enable-background:new 0 0 1000 1000;" xml:space="preserve">
<style type="text/css">
	.st0{fill:#FFFFFF;}
</style>
<path class="st0" d="M785.1,850.5c-9.2-13.7-3.8-35,12.9-48.8c16.8-14,38.9-15.3,50.6-3.4c17.3-19.9,31.9-42.8,44.1-68.5
	c-2.8,0.1-5.6-0.3-8.3-1.2c-16.7-5.6-23.9-28.6-16.2-51.5s27.4-36.8,44-31.2c3.3,1.1,6.3,3,8.9,5.4c8-29.3,14.2-61.1,19.2-95.3
	c-8.4,5-17.8,6.9-26.8,4.6c-21.8-5.5-33.7-33.2-26.4-61.7c7.2-28.5,30.8-47.1,52.7-41.6c4,1,7.6,2.7,10.8,5
	c1.5-19.3,2.8-39.2,3.9-59.6c-0.9-25.7-3.5-50.1-7.6-73.1c-5.2,9.1-13,16.1-23,19.4c-24.6,8.2-52.7-9.3-62.6-39.1
	c-10-29.8,2-60.6,26.6-68.9c11.6-3.9,24-2,34.9,4.1c-33.8-83-75.9-128.4-146.6-166c27.3,18,23.2,34.8,10.6,56.8
	c-13.3,23.1-48.6,27.6-78.9,10.1s-44-50.3-30.7-73.4c11.3-19.7,32.7-27.8,59.3-18.4c-69.7-32.5-144-43.2-224.9-37.6
	c17.7,7,30.5,19.4,33.9,35.5c6.8,31.2-23.9,64.3-68.5,74c-44.6,9.6-86.2-7.9-92.9-39.1c-4.1-19,5.6-38.6,23.9-53.3
	C243.9,77.1,96.6,195,55.2,373.8c38.2,6.6,55.3,15.8,55.3,15.8c20.9,21.5,60.5,42,106.5,60.4c-8.2-10.5-13-23.7-13-38
	c0-34.2,27.7-61.9,61.9-61.9s61.9,27.7,61.9,61.9c0,29.6-20.7,54.3-48.5,60.4c32.2,10.6,64.8,20,94.5,27.8
	c-46.1-94.8,43.4-155.3,151.4-150.1c1.1,0.2,2.2,0.5,3.3,0.7L516,397.5l-79,13.2v135.6l46.1-92.1l84.2,11.9l50.6-80.9
	c31.8,18.5,58.7,42.7,74.8,71.2l-71.5,66.3l-68.5-27.6l-93.5,92.2l102.7-29l64.5,29l91-46.7c4.2,27.8,4.3,53.4,0.6,76.5
	c-8.8,17.1-20,31.7-35,42.6l-86.9,6.6l-29-52.7l-97.9,17.8l-3.4,0.6l73.7,22.4l10.5,63.2L638,733c-54.2,29.8-132.7,35.7-228.7,12.1
	c5.3,50,9.2,71.1,19.8,106.6c-78.5-37.8-144.3-101.5-197.5-189.6c-23.4,37.2-35.6,76.1-40.8,109.3L44.7,546.2
	c38.1,166.1,111.9,314.6,222.5,421.2c-4.4-43.7-10.5-87.6,1.3-114.5c95.4,93.1,205.9,150.9,351.5,126.4l-53.7-85.4
	C660,896.6,731.1,881.7,785.1,850.5z M265.9,244.8c-23.3,3.6-47.7,12.8-72.4,27.6c6.5-49.5,39.6-81.8,88.2-104
	C286.9,183.8,280.9,210,265.9,244.8z"/>
</svg>
