<?xml version="1.0" standalone="no"?>
<!DOCTYPE svg PUBLIC "-//W3C//DTD SVG 20010904//EN"
 "http://www.w3.org/TR/2001/REC-SVG-20010904/DTD/svg10.dtd">
<svg version="1.0" xmlns="http://www.w3.org/2000/svg"
 width="1000.000000pt" height="1000.000000pt" viewBox="0 0 1000.000000 1000.000000"
 preserveAspectRatio="xMidYMid meet">
<metadata>
Created by potrace 1.15, written by Peter Selinger 2001-2017
</metadata>
<g transform="translate(0.000000,1000.000000) scale(0.100000,-0.100000)"
fill="#000000" stroke="none">
<path d="M4580 9513 c-51 -9 -93 -26 -153 -62 -115 -70 -197 -99 -357 -126
-193 -32 -192 -35 5 -64 169 -25 333 -27 390 -5 133 52 149 56 186 45 40 -12
66 -44 76 -91 6 -34 8 -34 -72 -15 -81 20 -228 19 -296 -1 -74 -22 -144 -59
-204 -106 -27 -22 -111 -69 -185 -105 -162 -77 -340 -175 -340 -185 0 -11 156
-10 285 2 159 16 235 35 292 76 57 41 106 64 139 64 23 0 94 -54 94 -71 0 -5
-22 -40 -49 -77 l-49 -67 -109 -1 c-119 -1 -199 -17 -325 -65 -81 -30 -86 -34
-228 -178 -80 -82 -161 -160 -180 -175 l-35 -28 105 5 c116 5 204 29 272 75
118 80 142 92 186 92 50 0 92 -21 114 -58 14 -23 14 -29 -8 -76 -17 -36 -24
-69 -24 -113 l0 -63 -30 0 c-51 0 -133 -21 -195 -51 -47 -22 -66 -38 -90 -76
-40 -64 -137 -159 -241 -234 -46 -34 -83 -64 -81 -66 3 -2 78 12 168 32 129
28 183 46 254 81 96 47 149 55 214 33 28 -10 31 -15 31 -54 0 -42 -1 -43 -45
-58 -74 -26 -128 -69 -158 -130 -28 -54 -124 -168 -192 -229 -20 -17 -34 -32
-32 -35 7 -6 149 48 229 88 44 22 87 52 100 69 43 59 106 25 94 -52 -11 -66
-41 -125 -73 -141 -15 -8 -71 -17 -123 -21 -1125 -81 -1823 -497 -2078 -1238
-76 -219 -118 -464 -107 -623 57 -846 351 -1338 980 -1644 330 -161 757 -273
1340 -350 229 -31 480 -113 760 -250 587 -288 950 -715 1067 -1255 30 -136 32
-435 5 -569 -67 -333 -236 -601 -443 -703 -69 -35 -87 -39 -163 -42 -80 -3
-90 -1 -137 27 -82 48 -137 148 -172 311 -23 109 -22 419 2 565 22 137 59 278
91 355 14 33 25 62 25 65 0 3 -33 -22 -72 -56 -294 -247 -447 -161 -528 295
-22 124 -50 390 -50 472 0 30 -3 54 -7 54 -5 0 -21 -47 -36 -104 -45 -166
-113 -282 -189 -322 -39 -20 -105 -17 -157 8 -103 49 -263 246 -386 476 l-50
93 -14 -33 c-32 -79 9 -380 69 -499 12 -24 73 -96 134 -159 158 -162 234 -276
281 -419 23 -70 24 -176 3 -216 -49 -92 -132 -115 -259 -72 -91 31 -168 80
-260 166 -44 40 -82 72 -84 70 -2 -2 30 -45 72 -94 262 -313 367 -561 297
-697 -38 -73 -126 -112 -239 -106 -39 2 -65 -1 -65 -7 0 -20 187 -191 265
-243 321 -214 812 -344 1305 -346 164 -1 180 1 265 27 207 65 370 163 512 310
136 141 231 299 306 507 109 301 160 722 138 1147 -10 191 -13 206 -45 295
-245 676 -714 1198 -1461 1630 -204 118 -316 175 -722 371 -533 258 -684 348
-829 492 -93 93 -139 175 -157 278 -11 64 -10 67 19 113 131 211 576 228 1114
42 96 -33 193 -62 216 -65 94 -11 339 52 509 131 326 153 634 436 813 750 107
186 160 356 168 536 l5 115 -42 -50 c-101 -119 -199 -204 -286 -247 -77 -38
-92 -42 -161 -42 -42 -1 -97 6 -122 13 l-45 15 85 8 c194 19 299 65 415 182
61 61 91 101 120 161 41 82 133 205 283 378 108 124 141 148 187 136 107 -30
249 -114 322 -192 65 -68 84 -106 91 -179 5 -56 7 -61 47 -88 60 -41 78 -96
52 -160 -5 -11 50 -48 221 -147 126 -73 231 -133 235 -133 13 0 7 154 -8 217
-19 80 -62 176 -118 261 -28 42 -46 83 -50 109 -7 54 -39 121 -89 185 -44 54
-88 79 -130 71 -44 -8 -122 55 -383 308 -69 67 -112 101 -140 110 -52 16 -176
17 -241 0 -48 -11 -53 -16 -75 -64 -35 -75 -114 -152 -175 -170 l-49 -14 -6
28 c-29 134 -385 500 -629 647 -38 23 -71 51 -80 68 -17 35 -19 206 -2 244 10
24 11 23 11 -12 2 -79 103 -147 285 -193 123 -31 131 -31 184 5 24 16 67 34
96 41 70 15 115 0 173 -57 24 -24 48 -44 54 -44 24 0 116 56 161 98 80 74 118
169 118 294 l0 66 -67 37 c-88 48 -147 92 -263 194 -166 146 -186 158 -348
214 l-148 52 20 45 c23 52 37 238 17 226 -6 -4 -11 -12 -11 -18 0 -43 -102
-120 -216 -161 -66 -24 -74 -24 -130 -13 -33 7 -83 28 -114 48 -164 105 -359
169 -460 151z m887 -420 c46 -21 83 -41 83 -45 0 -4 -25 -10 -56 -14 -52 -6
-58 -5 -74 17 -30 39 -52 79 -43 79 4 0 45 -17 90 -37z"/>
<path d="M6047 6948 c13 -69 7 -287 -10 -360 -8 -38 -14 -68 -13 -68 0 0 69
22 153 49 l152 48 36 -37 36 -37 -24 -54 c-31 -70 -90 -166 -171 -278 -36 -49
-78 -113 -93 -141 -40 -75 -77 -94 -166 -87 -40 3 -81 7 -91 9 -18 3 -29 -26
-98 -246 -43 -137 -77 -251 -74 -253 9 -9 147 39 223 77 43 21 96 54 118 73
33 28 51 35 105 41 89 10 187 35 210 55 12 10 29 53 45 113 44 172 182 516
261 651 27 46 36 75 43 142 19 162 -20 276 -109 322 -44 22 -47 22 -125 8
-127 -23 -306 -18 -398 11 -16 5 -17 1 -10 -38z"/>
</g>
</svg>
